<svg width="955" height="191" viewBox="0 0 955 191" fill="none" xmlns="http://www.w3.org/2000/svg">
<path d="M139.558 178C185.154 178 222.117 141.063 222.117 95.5C222.117 49.9365 185.154 13 139.558 13C93.9626 13 57 49.9365 57 95.5C57 141.063 93.9626 178 139.558 178Z" fill="white"/>
<path d="M139.558 174.118C183.008 174.118 218.231 138.919 218.231 95.5C218.231 52.0807 183.008 16.8824 139.558 16.8824C96.1083 16.8824 60.8851 52.0807 60.8851 95.5C60.8851 138.919 96.1083 174.118 139.558 174.118Z" fill="#FCBF24"/>
<path d="M100.222 95.5L139.558 56.1912L179.138 95.5L139.558 135.051L100.222 95.5Z" fill="#D97707"/>
<path d="M195.407 39.9338L139.558 95.5V56.4338L155.827 40.1765H195.407V39.9338ZM139.558 95.5L195.407 151.309V112L178.895 95.5H139.558ZM123.289 151.309L139.558 135.051V95.5L83.9529 151.309H123.289ZM83.9529 79.2427L100.222 95.5H139.558L83.9529 39.9338V79.2427Z" fill="#FEF3C7"/>
<path d="M565.484 131.434C556.985 131.434 550.186 128.765 544.844 123.669C539.745 118.574 537.074 111.537 537.074 102.801C537.074 97.2206 538.288 92.3676 540.474 88C542.902 83.1471 546.059 79.75 550.429 77.3235C554.072 75.1397 558.928 73.9265 564.27 73.9265C571.554 73.9265 577.625 76.3529 582.239 81.4485C586.609 86.0588 588.795 93.0956 588.795 101.103V106.199H551.643C552.129 109.838 553.1 112.507 555.043 114.449C557.471 117.118 560.628 118.331 565.484 118.331C570.34 118.331 574.711 116.632 579.082 113.235L582.967 110.081L588.795 121.728L586.852 123.669C584.181 126.338 580.782 127.794 577.382 129.25H576.897C572.526 130.949 568.883 131.434 565.484 131.434ZM574.468 94.0662C573.983 92.3676 573.254 90.9118 572.04 89.9412C570.098 88 567.912 87.2721 564.513 87.2721C560.87 87.2721 558.199 88.2426 556.014 90.1838C554.8 91.1544 553.829 92.6103 553.343 94.3088H574.468V94.0662ZM462.772 131.434C454.273 131.434 447.474 128.765 442.132 123.669C436.79 118.574 434.362 111.537 434.362 102.801C434.362 97.2206 435.576 92.3676 437.762 88C440.19 83.1471 443.346 79.75 447.717 77.3235C451.359 75.1397 456.216 73.9265 461.558 73.9265C469.085 73.9265 475.156 76.3529 479.526 81.2059C483.897 85.8162 486.082 92.8529 486.082 100.86V106.199H448.931C449.417 109.838 450.388 112.507 452.331 114.449C454.759 117.118 457.915 118.331 462.772 118.331C467.628 118.331 471.999 116.632 476.37 113.235L480.255 110.081L486.082 121.728L484.14 123.669C481.469 126.338 478.069 127.794 474.67 129.25H474.184C470.056 130.949 466.414 131.434 462.772 131.434ZM471.513 94.0662C471.028 92.3676 470.299 90.9118 469.085 89.9412C467.143 88 464.957 87.2721 461.558 87.2721C458.158 87.2721 455.487 88.2426 453.302 90.1838C452.088 91.3971 451.117 92.8529 450.631 94.3088H471.513V94.0662ZM409.595 131.434C401.096 131.434 394.297 128.765 388.955 123.669C383.613 118.574 381.185 111.537 381.185 102.801C381.185 97.2206 382.399 92.3676 384.584 88C387.012 83.1471 390.169 79.75 394.54 77.3235C398.182 75.1397 403.039 73.9265 408.381 73.9265C416.151 73.9265 422.464 76.3529 426.592 81.2059C430.72 85.8162 433.148 92.6103 433.148 100.86V106.199H395.997C396.482 109.838 397.454 112.507 399.396 114.449C401.824 117.118 404.981 118.331 409.837 118.331C414.694 118.331 419.064 116.632 423.435 113.235L427.32 110.081L433.148 121.728L431.205 123.669C428.534 126.338 425.135 127.794 421.736 129.25H421.25C416.636 130.949 412.994 131.434 409.595 131.434ZM418.579 94.0662C418.093 92.3676 417.365 90.9118 416.151 89.9412C414.208 88 412.023 87.2721 408.623 87.2721C405.224 87.2721 402.553 88.2426 400.367 90.1838C399.153 91.3971 398.182 92.8529 397.697 94.3088H418.579V94.0662ZM487.539 131.191V121.728L515.706 88H488.753V75.3824H535.617V85.0882L507.936 118.088H536.831V131.191H487.539ZM351.318 131.191V92.3676C351.318 87.5147 351.075 83.1471 350.59 79.2647L350.347 74.8971H364.188L364.43 77.0809C364.673 77.0809 364.673 76.8382 364.916 76.8382C368.073 74.8971 371.958 73.9265 376.571 73.9265C378.271 73.9265 379.971 73.9265 381.913 74.4118L385.07 75.1397L384.342 88.4853L379.728 87.2721C378.999 87.0294 377.785 87.0294 376.086 87.0294C372.443 87.0294 370.015 88 368.073 90.1838C366.373 92.3676 365.402 95.5221 365.402 98.6765V131.191H351.318ZM286 131.191V55H317.081C324.608 55 331.164 56.9412 335.778 60.3382C340.877 63.9779 343.305 69.5588 343.305 76.5956C343.305 81.2059 342.091 85.3309 339.663 88.4853C338.934 89.6985 337.963 90.6691 336.749 91.6397C337.963 92.6103 339.177 93.5809 340.391 95.0368L340.634 95.2794C343.305 98.9191 344.762 103.287 344.762 108.625C344.762 115.662 342.334 121.485 337.478 125.368C332.864 129.25 326.065 131.191 317.809 131.191H286ZM317.324 117.846C324.123 117.846 326.793 116.39 327.765 115.662L328.008 115.419C328.493 114.934 330.436 113.721 330.436 108.868C330.436 103.772 328.979 99.1618 317.566 99.1618H300.083V117.846H317.324ZM315.867 85.8162C320.723 85.8162 324.123 85.0882 326.065 83.3897C327.279 82.4191 328.736 80.7206 328.736 76.8382C328.736 73.9265 328.736 68.1029 315.867 68.1029H299.841V85.8162H315.867Z" fill="white"/>
<path d="M328.25 92.125C331.893 90.9118 334.564 88.9706 336.506 86.3015C338.449 83.6324 339.42 80.4779 339.42 76.8382C339.42 71.0147 337.477 66.6471 333.592 63.7353C329.707 60.8235 324.122 59.125 317.324 59.125H290.128V127.309H318.052C325.337 127.309 331.164 125.61 335.049 122.456C338.934 119.301 340.877 114.691 340.877 108.625C340.877 104.257 339.906 100.86 337.72 97.7059C335.049 95.0368 332.135 93.0956 328.25 92.125ZM295.713 63.9779H315.624C327.036 63.9779 332.621 68.3456 332.621 76.8382C332.621 81.2059 331.407 84.3603 328.25 86.5441C325.337 88.7279 320.966 89.6985 315.381 89.6985H295.47V63.9779H295.713ZM330.436 118.574C327.765 120.757 323.151 121.728 317.324 121.728H295.713V95.0368H317.324C328.736 95.0368 334.321 99.6471 334.321 108.868C334.564 113.478 333.107 116.632 330.436 118.574ZM376.328 78.0515C378.028 78.0515 379.242 78.0515 380.699 78.2941L380.456 83.6324C379.242 83.3897 377.785 83.3897 375.843 83.3897C370.986 83.3897 367.344 85.0882 364.673 88C362.488 90.9118 361.031 94.7941 361.031 99.1618V127.309H355.446V92.3676C355.446 87.5147 355.203 82.9044 354.718 79.0221H360.302L361.031 87.7574C362.245 84.6029 364.188 81.9338 366.859 80.2353C369.53 78.5368 372.686 78.0515 376.328 78.0515ZM408.138 78.0515C403.524 78.0515 399.639 79.0221 396.24 80.9632C392.597 82.9044 389.926 85.8162 387.984 89.6985C386.041 93.5809 385.07 97.9485 385.07 102.801C385.07 110.566 387.255 116.632 391.626 120.757C395.997 125.125 401.824 127.309 409.352 127.309C412.994 127.309 416.151 126.581 419.55 125.61C422.707 124.397 425.863 122.941 427.806 121L425.621 116.39C420.764 120.272 415.422 122.213 409.595 122.213C403.767 122.213 399.396 120.515 396.24 116.875C393.326 113.721 391.626 108.625 391.626 102.074V101.831H428.777V100.618C428.777 93.3382 426.835 87.5147 423.192 83.6324C420.036 79.9926 414.694 78.0515 408.138 78.0515ZM392.112 97.9485C392.84 93.0956 394.783 89.4559 397.454 86.7868C400.367 84.1177 404.01 82.9044 408.623 82.9044C413.237 82.9044 416.393 84.1177 419.064 86.7868C421.735 89.4559 422.95 93.0956 423.435 97.9485H392.112ZM461.558 78.0515C456.944 78.0515 453.059 79.0221 449.66 80.9632C446.017 82.9044 443.346 85.8162 441.404 89.6985C439.461 93.5809 438.49 97.9485 438.49 102.801C438.49 110.566 440.675 116.632 445.046 120.757C449.417 125.125 455.244 127.309 462.772 127.309C466.414 127.309 469.571 126.581 472.97 125.61C476.127 124.397 479.283 122.941 481.226 121L479.041 116.39C474.184 120.272 468.842 122.213 463.015 122.213C457.187 122.213 452.816 120.515 449.66 116.875C446.746 113.721 445.046 108.625 445.046 102.074V101.831H482.197V100.618C482.197 93.3382 480.255 87.5147 476.612 83.6324C472.97 79.9926 468.114 78.0515 461.558 78.0515ZM445.289 97.9485C446.017 93.0956 447.96 89.4559 450.631 86.7868C453.545 84.1177 457.187 82.9044 461.801 82.9044C466.414 82.9044 469.571 84.1177 472.242 86.7868C474.913 89.4559 476.127 93.0956 476.612 97.9485H445.289ZM499.195 122.213H532.703V127.066H491.667V123.184L524.448 83.875H493.124V79.2647H531.732V83.6324L499.195 122.213ZM584.667 102.559V101.346C584.667 94.0662 582.724 88.2427 579.082 84.3603C575.44 80.4779 570.583 78.0515 564.027 78.0515C559.414 78.0515 555.528 79.0221 552.129 80.9632C548.487 82.9044 545.816 85.8162 543.873 89.6985C541.931 93.5809 540.959 97.9485 540.959 102.801C540.959 110.566 543.145 116.632 547.515 120.757C551.886 125.125 557.714 127.309 565.241 127.309C568.883 127.309 572.04 126.581 575.44 125.61C578.596 124.397 581.753 122.941 583.695 121L581.51 116.39C576.654 120.272 571.312 122.213 565.484 122.213C559.656 122.213 555.286 120.515 552.129 116.875C549.215 113.721 547.515 108.625 547.515 102.074V101.831H584.909L584.667 102.559ZM553.343 86.7868C556.257 84.1177 559.899 82.9044 564.513 82.9044C569.126 82.9044 572.283 84.1177 574.954 86.7868C577.625 89.4559 578.839 93.0956 579.325 97.9485H548.244C548.73 93.0956 550.429 89.4559 553.343 86.7868Z" fill="#2E2E2E"/>
<mask id="path-7-outside-1_1_2" maskUnits="userSpaceOnUse" x="612.58" y="57.6506" width="278" height="74" fill="black">
<rect fill="white" x="612.58" y="57.6506" width="278" height="74"/>
<path d="M654.197 80.37C653.941 77.7919 652.844 75.7891 650.905 74.3615C648.966 72.934 646.335 72.2202 643.011 72.2202C640.752 72.2202 638.845 72.5398 637.29 73.179C635.734 73.7969 634.541 74.6598 633.71 75.7678C632.901 76.8757 632.496 78.1328 632.496 79.5391C632.453 80.7109 632.698 81.7337 633.231 82.6073C633.785 83.4808 634.541 84.2372 635.5 84.8764C636.459 85.4943 637.567 86.0376 638.824 86.5064C640.081 86.9538 641.423 87.3374 642.851 87.657L648.732 89.0632C651.587 89.7024 654.207 90.5547 656.594 91.62C658.98 92.6854 661.047 93.9957 662.794 95.5511C664.541 97.1065 665.894 98.9389 666.853 101.048C667.833 103.158 668.334 105.576 668.355 108.303C668.334 112.309 667.311 115.782 665.287 118.722C663.284 121.641 660.386 123.911 656.594 125.53C652.822 127.128 648.273 127.927 642.947 127.927C637.663 127.927 633.06 127.117 629.14 125.498C625.241 123.879 622.194 121.482 619.999 118.307C617.826 115.111 616.686 111.158 616.58 106.45H629.971C630.12 108.644 630.749 110.477 631.857 111.947C632.986 113.396 634.488 114.493 636.363 115.239C638.259 115.963 640.401 116.325 642.787 116.325C645.131 116.325 647.165 115.984 648.891 115.303C650.638 114.621 651.991 113.673 652.95 112.458C653.909 111.244 654.388 109.848 654.388 108.271C654.388 106.801 653.952 105.565 653.078 104.564C652.226 103.563 650.969 102.71 649.307 102.007C647.666 101.304 645.653 100.665 643.266 100.089L636.139 98.2997C630.621 96.9574 626.263 94.8587 623.067 92.0036C619.871 89.1484 618.284 85.3026 618.305 80.4659C618.284 76.5028 619.339 73.0405 621.469 70.0788C623.621 67.1172 626.572 64.8054 630.322 63.1435C634.072 61.4815 638.334 60.6506 643.107 60.6506C647.964 60.6506 652.205 61.4815 655.827 63.1435C659.47 64.8054 662.304 67.1172 664.328 70.0788C666.352 73.0405 667.396 76.4709 667.46 80.37H654.197Z"/>
<path d="M723.175 77.9091L706.012 127H690.671L673.509 77.9091H687.891L698.086 113.033H698.597L708.761 77.9091H723.175Z"/>
<path d="M750.932 127.959C745.883 127.959 741.536 126.936 737.893 124.891C734.27 122.824 731.479 119.905 729.519 116.134C727.559 112.341 726.579 107.856 726.579 102.678C726.579 97.6286 727.559 93.1967 729.519 89.3828C731.479 85.5689 734.238 82.5966 737.797 80.4659C741.376 78.3352 745.574 77.2699 750.389 77.2699C753.628 77.2699 756.643 77.7919 759.434 78.8359C762.246 79.8587 764.697 81.4034 766.785 83.4702C768.894 85.5369 770.535 88.1364 771.706 91.2685C772.878 94.3793 773.464 98.0227 773.464 102.199V105.938H732.012V97.5007H760.648C760.648 95.5405 760.222 93.804 759.37 92.2912C758.518 90.7784 757.335 89.5959 755.822 88.7436C754.331 87.87 752.594 87.4332 750.613 87.4332C748.546 87.4332 746.714 87.9126 745.116 88.8715C743.539 89.809 742.303 91.0767 741.408 92.6747C740.513 94.2514 740.055 96.0092 740.034 97.9482V105.97C740.034 108.399 740.481 110.498 741.376 112.266C742.292 114.035 743.581 115.398 745.243 116.357C746.905 117.316 748.876 117.795 751.156 117.795C752.669 117.795 754.054 117.582 755.311 117.156C756.568 116.73 757.644 116.091 758.539 115.239C759.434 114.386 760.116 113.342 760.584 112.107L773.177 112.938C772.537 115.963 771.227 118.605 769.246 120.864C767.285 123.101 764.75 124.848 761.639 126.105C758.55 127.341 754.981 127.959 750.932 127.959Z"/>
<path d="M795.964 61.5455V127H782.349V61.5455H795.964Z"/>
<path d="M832.982 77.9091V88.1364H803.419V77.9091H832.982ZM810.131 66.1477H823.746V111.915C823.746 113.172 823.937 114.152 824.321 114.855C824.705 115.537 825.237 116.016 825.919 116.293C826.622 116.57 827.432 116.709 828.348 116.709C828.987 116.709 829.626 116.656 830.266 116.549C830.905 116.421 831.395 116.325 831.736 116.261L833.877 126.393C833.195 126.606 832.236 126.851 831.001 127.128C829.765 127.426 828.263 127.607 826.494 127.671C823.213 127.799 820.337 127.362 817.865 126.361C815.415 125.359 813.508 123.804 812.144 121.695C810.781 119.585 810.109 116.922 810.131 113.705V66.1477Z"/>
<path d="M863.696 127.959C858.646 127.959 854.3 126.936 850.656 124.891C847.034 122.824 844.243 119.905 842.283 116.134C840.322 112.341 839.342 107.856 839.342 102.678C839.342 97.6286 840.322 93.1967 842.283 89.3828C844.243 85.5689 847.002 82.5966 850.56 80.4659C854.14 78.3352 858.337 77.2699 863.153 77.2699C866.391 77.2699 869.406 77.7919 872.197 78.8359C875.01 79.8587 877.46 81.4034 879.548 83.4702C881.658 85.5369 883.298 88.1364 884.47 91.2685C885.642 94.3793 886.228 98.0227 886.228 102.199V105.938H844.776V97.5007H873.412C873.412 95.5405 872.986 93.804 872.134 92.2912C871.281 90.7784 870.099 89.5959 868.586 88.7436C867.094 87.87 865.358 87.4332 863.376 87.4332C861.31 87.4332 859.477 87.9126 857.879 88.8715C856.303 89.809 855.067 91.0767 854.172 92.6747C853.277 94.2514 852.819 96.0092 852.798 97.9482V105.97C852.798 108.399 853.245 110.498 854.14 112.266C855.056 114.035 856.345 115.398 858.007 116.357C859.669 117.316 861.64 117.795 863.92 117.795C865.433 117.795 866.817 117.582 868.075 117.156C869.332 116.73 870.408 116.091 871.303 115.239C872.197 114.386 872.879 113.342 873.348 112.107L885.94 112.938C885.301 115.963 883.991 118.605 882.009 120.864C880.049 123.101 877.513 124.848 874.403 126.105C871.313 127.341 867.744 127.959 863.696 127.959Z"/>
</mask>
<path d="M654.197 80.37C653.941 77.7919 652.844 75.7891 650.905 74.3615C648.966 72.934 646.335 72.2202 643.011 72.2202C640.752 72.2202 638.845 72.5398 637.29 73.179C635.734 73.7969 634.541 74.6598 633.71 75.7678C632.901 76.8757 632.496 78.1328 632.496 79.5391C632.453 80.7109 632.698 81.7337 633.231 82.6073C633.785 83.4808 634.541 84.2372 635.5 84.8764C636.459 85.4943 637.567 86.0376 638.824 86.5064C640.081 86.9538 641.423 87.3374 642.851 87.657L648.732 89.0632C651.587 89.7024 654.207 90.5547 656.594 91.62C658.98 92.6854 661.047 93.9957 662.794 95.5511C664.541 97.1065 665.894 98.9389 666.853 101.048C667.833 103.158 668.334 105.576 668.355 108.303C668.334 112.309 667.311 115.782 665.287 118.722C663.284 121.641 660.386 123.911 656.594 125.53C652.822 127.128 648.273 127.927 642.947 127.927C637.663 127.927 633.06 127.117 629.14 125.498C625.241 123.879 622.194 121.482 619.999 118.307C617.826 115.111 616.686 111.158 616.58 106.45H629.971C630.12 108.644 630.749 110.477 631.857 111.947C632.986 113.396 634.488 114.493 636.363 115.239C638.259 115.963 640.401 116.325 642.787 116.325C645.131 116.325 647.165 115.984 648.891 115.303C650.638 114.621 651.991 113.673 652.95 112.458C653.909 111.244 654.388 109.848 654.388 108.271C654.388 106.801 653.952 105.565 653.078 104.564C652.226 103.563 650.969 102.71 649.307 102.007C647.666 101.304 645.653 100.665 643.266 100.089L636.139 98.2997C630.621 96.9574 626.263 94.8587 623.067 92.0036C619.871 89.1484 618.284 85.3026 618.305 80.4659C618.284 76.5028 619.339 73.0405 621.469 70.0788C623.621 67.1172 626.572 64.8054 630.322 63.1435C634.072 61.4815 638.334 60.6506 643.107 60.6506C647.964 60.6506 652.205 61.4815 655.827 63.1435C659.47 64.8054 662.304 67.1172 664.328 70.0788C666.352 73.0405 667.396 76.4709 667.46 80.37H654.197Z" fill="white"/>
<path d="M723.175 77.9091L706.012 127H690.671L673.509 77.9091H687.891L698.086 113.033H698.597L708.761 77.9091H723.175Z" fill="white"/>
<path d="M750.932 127.959C745.883 127.959 741.536 126.936 737.893 124.891C734.27 122.824 731.479 119.905 729.519 116.134C727.559 112.341 726.579 107.856 726.579 102.678C726.579 97.6286 727.559 93.1967 729.519 89.3828C731.479 85.5689 734.238 82.5966 737.797 80.4659C741.376 78.3352 745.574 77.2699 750.389 77.2699C753.628 77.2699 756.643 77.7919 759.434 78.8359C762.246 79.8587 764.697 81.4034 766.785 83.4702C768.894 85.5369 770.535 88.1364 771.706 91.2685C772.878 94.3793 773.464 98.0227 773.464 102.199V105.938H732.012V97.5007H760.648C760.648 95.5405 760.222 93.804 759.37 92.2912C758.518 90.7784 757.335 89.5959 755.822 88.7436C754.331 87.87 752.594 87.4332 750.613 87.4332C748.546 87.4332 746.714 87.9126 745.116 88.8715C743.539 89.809 742.303 91.0767 741.408 92.6747C740.513 94.2514 740.055 96.0092 740.034 97.9482V105.97C740.034 108.399 740.481 110.498 741.376 112.266C742.292 114.035 743.581 115.398 745.243 116.357C746.905 117.316 748.876 117.795 751.156 117.795C752.669 117.795 754.054 117.582 755.311 117.156C756.568 116.73 757.644 116.091 758.539 115.239C759.434 114.386 760.116 113.342 760.584 112.107L773.177 112.938C772.537 115.963 771.227 118.605 769.246 120.864C767.285 123.101 764.75 124.848 761.639 126.105C758.55 127.341 754.981 127.959 750.932 127.959Z" fill="white"/>
<path d="M795.964 61.5455V127H782.349V61.5455H795.964Z" fill="white"/>
<path d="M832.982 77.9091V88.1364H803.419V77.9091H832.982ZM810.131 66.1477H823.746V111.915C823.746 113.172 823.937 114.152 824.321 114.855C824.705 115.537 825.237 116.016 825.919 116.293C826.622 116.57 827.432 116.709 828.348 116.709C828.987 116.709 829.626 116.656 830.266 116.549C830.905 116.421 831.395 116.325 831.736 116.261L833.877 126.393C833.195 126.606 832.236 126.851 831.001 127.128C829.765 127.426 828.263 127.607 826.494 127.671C823.213 127.799 820.337 127.362 817.865 126.361C815.415 125.359 813.508 123.804 812.144 121.695C810.781 119.585 810.109 116.922 810.131 113.705V66.1477Z" fill="white"/>
<path d="M863.696 127.959C858.646 127.959 854.3 126.936 850.656 124.891C847.034 122.824 844.243 119.905 842.283 116.134C840.322 112.341 839.342 107.856 839.342 102.678C839.342 97.6286 840.322 93.1967 842.283 89.3828C844.243 85.5689 847.002 82.5966 850.56 80.4659C854.14 78.3352 858.337 77.2699 863.153 77.2699C866.391 77.2699 869.406 77.7919 872.197 78.8359C875.01 79.8587 877.46 81.4034 879.548 83.4702C881.658 85.5369 883.298 88.1364 884.47 91.2685C885.642 94.3793 886.228 98.0227 886.228 102.199V105.938H844.776V97.5007H873.412C873.412 95.5405 872.986 93.804 872.134 92.2912C871.281 90.7784 870.099 89.5959 868.586 88.7436C867.094 87.87 865.358 87.4332 863.376 87.4332C861.31 87.4332 859.477 87.9126 857.879 88.8715C856.303 89.809 855.067 91.0767 854.172 92.6747C853.277 94.2514 852.819 96.0092 852.798 97.9482V105.97C852.798 108.399 853.245 110.498 854.14 112.266C855.056 114.035 856.345 115.398 858.007 116.357C859.669 117.316 861.64 117.795 863.92 117.795C865.433 117.795 866.817 117.582 868.075 117.156C869.332 116.73 870.408 116.091 871.303 115.239C872.197 114.386 872.879 113.342 873.348 112.107L885.94 112.938C885.301 115.963 883.991 118.605 882.009 120.864C880.049 123.101 877.513 124.848 874.403 126.105C871.313 127.341 867.744 127.959 863.696 127.959Z" fill="white"/>
<path d="M654.197 80.37C653.941 77.7919 652.844 75.7891 650.905 74.3615C648.966 72.934 646.335 72.2202 643.011 72.2202C640.752 72.2202 638.845 72.5398 637.29 73.179C635.734 73.7969 634.541 74.6598 633.71 75.7678C632.901 76.8757 632.496 78.1328 632.496 79.5391C632.453 80.7109 632.698 81.7337 633.231 82.6073C633.785 83.4808 634.541 84.2372 635.5 84.8764C636.459 85.4943 637.567 86.0376 638.824 86.5064C640.081 86.9538 641.423 87.3374 642.851 87.657L648.732 89.0632C651.587 89.7024 654.207 90.5547 656.594 91.62C658.98 92.6854 661.047 93.9957 662.794 95.5511C664.541 97.1065 665.894 98.9389 666.853 101.048C667.833 103.158 668.334 105.576 668.355 108.303C668.334 112.309 667.311 115.782 665.287 118.722C663.284 121.641 660.386 123.911 656.594 125.53C652.822 127.128 648.273 127.927 642.947 127.927C637.663 127.927 633.06 127.117 629.14 125.498C625.241 123.879 622.194 121.482 619.999 118.307C617.826 115.111 616.686 111.158 616.58 106.45H629.971C630.12 108.644 630.749 110.477 631.857 111.947C632.986 113.396 634.488 114.493 636.363 115.239C638.259 115.963 640.401 116.325 642.787 116.325C645.131 116.325 647.165 115.984 648.891 115.303C650.638 114.621 651.991 113.673 652.95 112.458C653.909 111.244 654.388 109.848 654.388 108.271C654.388 106.801 653.952 105.565 653.078 104.564C652.226 103.563 650.969 102.71 649.307 102.007C647.666 101.304 645.653 100.665 643.266 100.089L636.139 98.2997C630.621 96.9574 626.263 94.8587 623.067 92.0036C619.871 89.1484 618.284 85.3026 618.305 80.4659C618.284 76.5028 619.339 73.0405 621.469 70.0788C623.621 67.1172 626.572 64.8054 630.322 63.1435C634.072 61.4815 638.334 60.6506 643.107 60.6506C647.964 60.6506 652.205 61.4815 655.827 63.1435C659.47 64.8054 662.304 67.1172 664.328 70.0788C666.352 73.0405 667.396 76.4709 667.46 80.37H654.197Z" stroke="white" stroke-width="6" mask="url(#path-7-outside-1_1_2)"/>
<path d="M723.175 77.9091L706.012 127H690.671L673.509 77.9091H687.891L698.086 113.033H698.597L708.761 77.9091H723.175Z" stroke="white" stroke-width="6" mask="url(#path-7-outside-1_1_2)"/>
<path d="M750.932 127.959C745.883 127.959 741.536 126.936 737.893 124.891C734.27 122.824 731.479 119.905 729.519 116.134C727.559 112.341 726.579 107.856 726.579 102.678C726.579 97.6286 727.559 93.1967 729.519 89.3828C731.479 85.5689 734.238 82.5966 737.797 80.4659C741.376 78.3352 745.574 77.2699 750.389 77.2699C753.628 77.2699 756.643 77.7919 759.434 78.8359C762.246 79.8587 764.697 81.4034 766.785 83.4702C768.894 85.5369 770.535 88.1364 771.706 91.2685C772.878 94.3793 773.464 98.0227 773.464 102.199V105.938H732.012V97.5007H760.648C760.648 95.5405 760.222 93.804 759.37 92.2912C758.518 90.7784 757.335 89.5959 755.822 88.7436C754.331 87.87 752.594 87.4332 750.613 87.4332C748.546 87.4332 746.714 87.9126 745.116 88.8715C743.539 89.809 742.303 91.0767 741.408 92.6747C740.513 94.2514 740.055 96.0092 740.034 97.9482V105.97C740.034 108.399 740.481 110.498 741.376 112.266C742.292 114.035 743.581 115.398 745.243 116.357C746.905 117.316 748.876 117.795 751.156 117.795C752.669 117.795 754.054 117.582 755.311 117.156C756.568 116.73 757.644 116.091 758.539 115.239C759.434 114.386 760.116 113.342 760.584 112.107L773.177 112.938C772.537 115.963 771.227 118.605 769.246 120.864C767.285 123.101 764.75 124.848 761.639 126.105C758.55 127.341 754.981 127.959 750.932 127.959Z" stroke="white" stroke-width="6" mask="url(#path-7-outside-1_1_2)"/>
<path d="M795.964 61.5455V127H782.349V61.5455H795.964Z" stroke="white" stroke-width="6" mask="url(#path-7-outside-1_1_2)"/>
<path d="M832.982 77.9091V88.1364H803.419V77.9091H832.982ZM810.131 66.1477H823.746V111.915C823.746 113.172 823.937 114.152 824.321 114.855C824.705 115.537 825.237 116.016 825.919 116.293C826.622 116.57 827.432 116.709 828.348 116.709C828.987 116.709 829.626 116.656 830.266 116.549C830.905 116.421 831.395 116.325 831.736 116.261L833.877 126.393C833.195 126.606 832.236 126.851 831.001 127.128C829.765 127.426 828.263 127.607 826.494 127.671C823.213 127.799 820.337 127.362 817.865 126.361C815.415 125.359 813.508 123.804 812.144 121.695C810.781 119.585 810.109 116.922 810.131 113.705V66.1477Z" stroke="white" stroke-width="6" mask="url(#path-7-outside-1_1_2)"/>
<path d="M863.696 127.959C858.646 127.959 854.3 126.936 850.656 124.891C847.034 122.824 844.243 119.905 842.283 116.134C840.322 112.341 839.342 107.856 839.342 102.678C839.342 97.6286 840.322 93.1967 842.283 89.3828C844.243 85.5689 847.002 82.5966 850.56 80.4659C854.14 78.3352 858.337 77.2699 863.153 77.2699C866.391 77.2699 869.406 77.7919 872.197 78.8359C875.01 79.8587 877.46 81.4034 879.548 83.4702C881.658 85.5369 883.298 88.1364 884.47 91.2685C885.642 94.3793 886.228 98.0227 886.228 102.199V105.938H844.776V97.5007H873.412C873.412 95.5405 872.986 93.804 872.134 92.2912C871.281 90.7784 870.099 89.5959 868.586 88.7436C867.094 87.87 865.358 87.4332 863.376 87.4332C861.31 87.4332 859.477 87.9126 857.879 88.8715C856.303 89.809 855.067 91.0767 854.172 92.6747C853.277 94.2514 852.819 96.0092 852.798 97.9482V105.97C852.798 108.399 853.245 110.498 854.14 112.266C855.056 114.035 856.345 115.398 858.007 116.357C859.669 117.316 861.64 117.795 863.92 117.795C865.433 117.795 866.817 117.582 868.075 117.156C869.332 116.73 870.408 116.091 871.303 115.239C872.197 114.386 872.879 113.342 873.348 112.107L885.94 112.938C885.301 115.963 883.991 118.605 882.009 120.864C880.049 123.101 877.513 124.848 874.403 126.105C871.313 127.341 867.744 127.959 863.696 127.959Z" stroke="white" stroke-width="6" mask="url(#path-7-outside-1_1_2)"/>
<path d="M654.197 80.37C653.941 77.7919 652.844 75.7891 650.905 74.3615C648.966 72.934 646.335 72.2202 643.011 72.2202C640.752 72.2202 638.845 72.5398 637.29 73.179C635.734 73.7969 634.541 74.6598 633.71 75.7678C632.901 76.8757 632.496 78.1328 632.496 79.5391C632.453 80.7109 632.698 81.7337 633.231 82.6073C633.785 83.4808 634.541 84.2372 635.5 84.8764C636.459 85.4943 637.567 86.0376 638.824 86.5064C640.081 86.9538 641.423 87.3374 642.851 87.657L648.732 89.0632C651.587 89.7024 654.207 90.5547 656.594 91.62C658.98 92.6854 661.047 93.9957 662.794 95.5511C664.541 97.1065 665.894 98.9389 666.853 101.048C667.833 103.158 668.334 105.576 668.355 108.303C668.334 112.309 667.311 115.782 665.287 118.722C663.284 121.641 660.386 123.911 656.594 125.53C652.822 127.128 648.273 127.927 642.947 127.927C637.663 127.927 633.06 127.117 629.14 125.498C625.241 123.879 622.194 121.482 619.999 118.307C617.826 115.111 616.686 111.158 616.58 106.45H629.971C630.12 108.644 630.749 110.477 631.857 111.947C632.986 113.396 634.488 114.493 636.363 115.239C638.259 115.963 640.401 116.325 642.787 116.325C645.131 116.325 647.165 115.984 648.891 115.303C650.638 114.621 651.991 113.673 652.95 112.458C653.909 111.244 654.388 109.848 654.388 108.271C654.388 106.801 653.952 105.565 653.078 104.564C652.226 103.563 650.969 102.71 649.307 102.007C647.666 101.304 645.653 100.665 643.266 100.089L636.139 98.2997C630.621 96.9574 626.263 94.8587 623.067 92.0036C619.871 89.1484 618.284 85.3026 618.305 80.4659C618.284 76.5028 619.339 73.0405 621.469 70.0788C623.621 67.1172 626.572 64.8054 630.322 63.1435C634.072 61.4815 638.334 60.6506 643.107 60.6506C647.964 60.6506 652.205 61.4815 655.827 63.1435C659.47 64.8054 662.304 67.1172 664.328 70.0788C666.352 73.0405 667.396 76.4709 667.46 80.37H654.197Z" fill="black"/>
<path d="M723.175 77.9091L706.012 127H690.671L673.509 77.9091H687.891L698.086 113.033H698.597L708.761 77.9091H723.175Z" fill="black"/>
<path d="M750.932 127.959C745.883 127.959 741.536 126.936 737.893 124.891C734.27 122.824 731.479 119.905 729.519 116.134C727.559 112.341 726.579 107.856 726.579 102.678C726.579 97.6286 727.559 93.1967 729.519 89.3828C731.479 85.5689 734.238 82.5966 737.797 80.4659C741.376 78.3352 745.574 77.2699 750.389 77.2699C753.628 77.2699 756.643 77.7919 759.434 78.8359C762.246 79.8587 764.697 81.4034 766.785 83.4702C768.894 85.5369 770.535 88.1364 771.706 91.2685C772.878 94.3793 773.464 98.0227 773.464 102.199V105.938H732.012V97.5007H760.648C760.648 95.5405 760.222 93.804 759.37 92.2912C758.518 90.7784 757.335 89.5959 755.822 88.7436C754.331 87.87 752.594 87.4332 750.613 87.4332C748.546 87.4332 746.714 87.9126 745.116 88.8715C743.539 89.809 742.303 91.0767 741.408 92.6747C740.513 94.2514 740.055 96.0092 740.034 97.9482V105.97C740.034 108.399 740.481 110.498 741.376 112.266C742.292 114.035 743.581 115.398 745.243 116.357C746.905 117.316 748.876 117.795 751.156 117.795C752.669 117.795 754.054 117.582 755.311 117.156C756.568 116.73 757.644 116.091 758.539 115.239C759.434 114.386 760.116 113.342 760.584 112.107L773.177 112.938C772.537 115.963 771.227 118.605 769.246 120.864C767.285 123.101 764.75 124.848 761.639 126.105C758.55 127.341 754.981 127.959 750.932 127.959Z" fill="black"/>
<path d="M795.964 61.5455V127H782.349V61.5455H795.964Z" fill="black"/>
<path d="M832.982 77.9091V88.1364H803.419V77.9091H832.982ZM810.131 66.1477H823.746V111.915C823.746 113.172 823.937 114.152 824.321 114.855C824.705 115.537 825.237 116.016 825.919 116.293C826.622 116.57 827.432 116.709 828.348 116.709C828.987 116.709 829.626 116.656 830.266 116.549C830.905 116.421 831.395 116.325 831.736 116.261L833.877 126.393C833.195 126.606 832.236 126.851 831.001 127.128C829.765 127.426 828.263 127.607 826.494 127.671C823.213 127.799 820.337 127.362 817.865 126.361C815.415 125.359 813.508 123.804 812.144 121.695C810.781 119.585 810.109 116.922 810.131 113.705V66.1477Z" fill="black"/>
<path d="M863.696 127.959C858.646 127.959 854.3 126.936 850.656 124.891C847.034 122.824 844.243 119.905 842.283 116.134C840.322 112.341 839.342 107.856 839.342 102.678C839.342 97.6286 840.322 93.1967 842.283 89.3828C844.243 85.5689 847.002 82.5966 850.56 80.4659C854.14 78.3352 858.337 77.2699 863.153 77.2699C866.391 77.2699 869.406 77.7919 872.197 78.8359C875.01 79.8587 877.46 81.4034 879.548 83.4702C881.658 85.5369 883.298 88.1364 884.47 91.2685C885.642 94.3793 886.228 98.0227 886.228 102.199V105.938H844.776V97.5007H873.412C873.412 95.5405 872.986 93.804 872.134 92.2912C871.281 90.7784 870.099 89.5959 868.586 88.7436C867.094 87.87 865.358 87.4332 863.376 87.4332C861.31 87.4332 859.477 87.9126 857.879 88.8715C856.303 89.809 855.067 91.0767 854.172 92.6747C853.277 94.2514 852.819 96.0092 852.798 97.9482V105.97C852.798 108.399 853.245 110.498 854.14 112.266C855.056 114.035 856.345 115.398 858.007 116.357C859.669 117.316 861.64 117.795 863.92 117.795C865.433 117.795 866.817 117.582 868.075 117.156C869.332 116.73 870.408 116.091 871.303 115.239C872.197 114.386 872.879 113.342 873.348 112.107L885.94 112.938C885.301 115.963 883.991 118.605 882.009 120.864C880.049 123.101 877.513 124.848 874.403 126.105C871.313 127.341 867.744 127.959 863.696 127.959Z" fill="black"/>
<g clip-path="url(#clip0_1_2)">
<path d="M182.8 52.6C171.9 36.9 150.2 32.3 134.6 42.2L107.1 59.8C99.6 64.5 94.4 72.2 92.9 80.9C91.6 88.2 92.7 95.7 96.2 102.2C93.8 105.8 92.2 109.8 91.5 114C89.9 122.9 92 132.1 97.2 139.4C108.2 155.1 129.8 159.7 145.4 149.8L172.9 132.3C180.4 127.6 185.6 119.9 187.1 111.2C188.4 103.9 187.3 96.4 183.8 89.9C186.2 86.3 187.8 82.3 188.5 78.1C190.2 69.1 188.1 59.9 182.8 52.6Z" fill="#FF3E00"/>
<path d="M131.9 140.9C123 143.2 113.7 139.7 108.5 132.2C105.3 127.8 104.1 122.3 105 116.9C105.2 116 105.4 115.2 105.6 114.3L106.1 112.7L107.5 113.7C110.8 116.1 114.4 117.9 118.3 119.1L119.3 119.4L119.2 120.4C119.1 121.8 119.5 123.3 120.3 124.5C121.9 126.8 124.7 127.9 127.4 127.2C128 127 128.6 126.8 129.1 126.5L156.5 109C157.9 108.1 158.8 106.8 159.1 105.2C159.4 103.6 159 101.9 158.1 100.6C156.5 98.3 153.7 97.3 151 98C150.4 98.2 149.8 98.4 149.3 98.7L138.8 105.4C137.1 106.5 135.2 107.3 133.2 107.8C124.3 110.1 115 106.6 109.8 99.1C106.7 94.7 105.4 89.2 106.4 83.8C107.3 78.6 110.5 73.9 115 71.1L142.5 53.6C144.2 52.5 146.1 51.7 148.1 51.1C157 48.8 166.3 52.3 171.5 59.8C174.7 64.2 175.9 69.7 175 75.1C174.8 76 174.6 76.8 174.3 77.7L173.8 79.3L172.4 78.3C169.1 75.9 165.5 74.1 161.6 72.9L160.6 72.6L160.7 71.6C160.8 70.2 160.4 68.7 159.6 67.5C158 65.2 155.2 64.2 152.5 64.9C151.9 65.1 151.3 65.3 150.8 65.6L123.4 83.1C122 84 121.1 85.3 120.8 86.9C120.5 88.5 120.9 90.2 121.8 91.5C123.4 93.8 126.2 94.8 128.9 94.1C129.5 93.9 130.1 93.7 130.6 93.4L141.1 86.7C142.8 85.6 144.7 84.8 146.7 84.2C155.6 81.9 164.9 85.4 170.1 92.9C173.3 97.3 174.5 102.8 173.6 108.2C172.7 113.4 169.5 118.1 165 120.9L137.5 138.4C135.8 139.5 133.9 140.3 131.9 140.9Z" fill="white"/>
</g>
<defs>
<clipPath id="clip0_1_2">
<rect width="98.1" height="118" fill="white" transform="translate(91 37)"/>
</clipPath>
</defs>
</svg>
